<?xml version="1.0" encoding="UTF-8" standalone="no"?>
<!-- Created with Inkscape (http://www.inkscape.org/) -->

<svg
   width="200mm"
   height="100mm"
   viewBox="0 0 200 100"
   version="1.1"
   id="svg8600"
   xml:space="preserve"
   inkscape:version="1.2.2 (732a01da63, 2022-12-09)"
   sodipodi:docname="bdd.svg"
   xmlns:inkscape="http://www.inkscape.org/namespaces/inkscape"
   xmlns:sodipodi="http://sodipodi.sourceforge.net/DTD/sodipodi-0.dtd"
   xmlns="http://www.w3.org/2000/svg"
   xmlns:svg="http://www.w3.org/2000/svg"><sodipodi:namedview
     id="namedview8602"
     pagecolor="#171a33"
     bordercolor="#666666"
     borderopacity="1.0"
     inkscape:showpageshadow="2"
     inkscape:pageopacity="0"
     inkscape:pagecheckerboard="0"
     inkscape:deskcolor="#d1d1d1"
     inkscape:document-units="mm"
     showgrid="false"
     inkscape:zoom="2.587745"
     inkscape:cx="460.05306"
     inkscape:cy="179.69313"
     inkscape:window-width="2560"
     inkscape:window-height="1417"
     inkscape:window-x="-8"
     inkscape:window-y="-8"
     inkscape:window-maximized="1"
     inkscape:current-layer="layer1" /><defs
     id="defs8597" /><g
     inkscape:label="Ebene 1"
     inkscape:groupmode="layer"
     id="layer1"><g
       id="g368"
       style="fill:#83c167;fill-opacity:1"><path
         id="path344"
         style="fill:#83c167;stroke-width:0.999999;fill-opacity:1"
         d="m 179.37039,36.651104 c -0.45357,-0.233102 -0.65063,-0.756442 -0.65388,-1.736508 -9.4e-4,-0.320885 -0.0415,-0.670256 -0.0898,-0.776357 -0.14406,-0.316186 -0.51222,-0.474743 -1.214,-0.522845 l -0.6421,-0.04402 v 1.186078 c 0,1.186076 0,1.186076 0.23721,1.186076 0.24765,0 0.49179,0.178898 0.49179,0.360372 0,0.241703 -0.22501,0.292931 -1.18599,0.27003 -0.9497,-0.0226 -0.96083,-0.02513 -0.98846,-0.220865 -0.0338,-0.239719 0.16935,-0.409537 0.49003,-0.409537 0.22863,0 0.22863,0 0.20727,-2.652759 -0.0214,-2.65276 -0.0214,-2.65276 -0.34536,-2.693262 -0.27897,-0.03488 -0.32748,-0.07072 -0.3491,-0.257799 -0.0418,-0.362137 0.16921,-0.410403 1.63471,-0.373886 1.44036,0.03591 1.66355,0.09283 2.19576,0.560109 0.79546,0.69842 0.8046,1.866714 0.02,2.555596 -0.28992,0.254547 -0.2902,0.255453 -0.12593,0.404111 0.30896,0.279606 0.40199,0.588789 0.44979,1.494734 0.0483,0.915408 0.16125,1.257441 0.3529,1.068525 0.0542,-0.05339 0.12105,-0.23567 0.14857,-0.405001 0.0482,-0.296584 0.0619,-0.307869 0.37267,-0.307869 0.28098,0 0.32625,0.02567 0.3507,0.198941 0.0462,0.327351 -0.13636,0.788046 -0.40025,1.010091 -0.27233,0.22915 -0.63806,0.269691 -0.95652,0.106032 z m -1.11896,-3.816092 c 0.63705,-0.272581 0.92598,-0.907936 0.66398,-1.460068 -0.2106,-0.443801 -0.6657,-0.672313 -1.47658,-0.741402 l -0.66825,-0.05694 v 1.184966 c 0,1.184959 0,1.184959 0.6101,1.184959 0.33785,0 0.72642,-0.04977 0.87075,-0.111519 z" /><path
         id="path340"
         style="fill:#83c167;stroke-width:0.999999;fill-opacity:1"
         d="m 116.32158,44.876396 c -0.37686,-0.241411 -0.54421,-0.703018 -0.54421,-1.501128 0,-0.383982 -0.0355,-0.791637 -0.079,-0.905897 -0.13811,-0.363271 -0.52895,-0.531167 -1.23727,-0.531505 -0.62775,-3e-4 -0.62775,-3e-4 -0.62775,1.133698 0,1.092041 0.006,1.134007 0.16732,1.134007 0.28019,0 0.48068,0.154054 0.48068,0.369349 0,0.271898 -0.25694,0.359649 -1.053,0.359649 -0.79606,0 -1.05301,-0.08775 -1.05301,-0.359649 0,-0.215295 0.2005,-0.369349 0.48068,-0.369349 0.16567,0 0.16733,-0.02606 0.16733,-2.632512 0,-2.606431 -0.002,-2.632505 -0.16733,-2.632505 -0.43651,0 -0.66804,-0.461032 -0.324,-0.645152 0.20705,-0.110811 2.15371,-0.107795 2.67567,0.0039 0.87243,0.187104 1.62396,1.006942 1.62188,1.769282 -0.001,0.402804 -0.33132,1.070385 -0.65735,1.328956 -0.17709,0.140445 -0.24133,0.238009 -0.18239,0.277038 0.05,0.03315 0.18673,0.202013 0.30375,0.375296 0.1928,0.285465 0.21289,0.388148 0.21397,1.093497 0.001,0.800488 0.10602,1.183455 0.32383,1.183455 0.0735,0 0.13651,-0.115535 0.16777,-0.307869 0.0275,-0.169331 0.0875,-0.345316 0.13326,-0.391085 0.12024,-0.120238 0.51772,-0.05307 0.61611,0.104166 0.11025,0.176142 -0.0498,0.720406 -0.29599,1.006634 -0.23977,0.278739 -0.80347,0.347268 -1.13097,0.137476 z m -0.73385,-3.959184 c 0.55896,-0.450637 0.61411,-1.128951 0.1294,-1.591361 -0.31653,-0.30197 -0.59369,-0.385297 -1.28154,-0.385297 -0.60222,0 -0.60222,0 -0.60222,1.142063 v 1.142063 l 0.72161,-0.02836 c 0.66529,-0.02615 0.7459,-0.04789 1.03275,-0.279157 z" /><path
         id="path334"
         style="fill:#83c167;stroke-width:0.999999;fill-opacity:1"
         d="m 189.93312,85.924432 c -0.24894,-0.102931 -0.52186,-0.43413 -0.60944,-0.739469 -0.0435,-0.151626 -0.0791,-0.592064 -0.0791,-0.978757 0,-0.636475 -0.0197,-0.726448 -0.2077,-0.949912 -0.24308,-0.288888 -0.62328,-0.412511 -1.27056,-0.41314 -0.46574,-3.09e-4 -0.46574,-3.09e-4 -0.46574,1.174047 0,1.174506 0,1.174506 0.22274,1.175752 0.32632,0.0011 0.44184,0.106235 0.41149,0.372053 -0.0267,0.234204 -0.0267,0.234204 -1.03923,0.234204 -1.01251,0 -1.01251,0 -1.03924,-0.234204 -0.0303,-0.265787 0.0852,-0.370241 0.41148,-0.372053 0.22275,-0.0011 0.22275,-0.0011 0.22275,-2.669363 0,-2.668128 0,-2.668128 -0.30375,-2.693253 -0.2677,-0.02216 -0.30692,-0.05296 -0.33048,-0.259361 -0.0152,-0.133021 0.0198,-0.263709 0.081,-0.302506 0.15586,-0.09878 2.33559,-0.0863 2.81316,0.0161 0.49625,0.106447 0.98424,0.448504 1.28228,0.898872 0.43481,0.657051 0.21582,1.787327 -0.42802,2.209193 -0.21347,0.139873 -0.21347,0.139873 -0.0533,0.315248 0.32564,0.356518 0.42187,0.671147 0.4302,1.406589 0.01,0.874974 0.0699,1.117777 0.27604,1.117777 0.11285,0 0.17506,-0.08354 0.22754,-0.305414 0.08,-0.338456 0.26224,-0.479543 0.52914,-0.40974 0.24769,0.06478 0.29914,0.374279 0.13406,0.806523 -0.21056,0.551318 -0.72283,0.804585 -1.21535,0.600865 z m -1.12599,-3.884072 c 1.07673,-0.488994 0.86103,-1.838961 -0.33829,-2.117108 -0.17475,-0.0406 -0.50909,-0.07459 -0.74298,-0.07565 -0.42525,-0.0011 -0.42525,-0.0011 -0.42525,1.172566 0,1.174506 0,1.174506 0.58725,1.172726 0.39657,-0.0011 0.69506,-0.05072 0.91927,-0.152563 z" /><path
         id="path322"
         style="fill:#83c167;stroke-width:0.999999;fill-opacity:1"
         d="m 171.70806,48.281448 c -0.19129,-0.04961 -0.5047,-0.324012 -0.63094,-0.552367 -0.0493,-0.0891 -0.11275,-0.571606 -0.1411,-1.072242 -0.0416,-0.733983 -0.0816,-0.943981 -0.20675,-1.084434 -0.24311,-0.272825 -0.62817,-0.394833 -1.24612,-0.394833 -0.5696,0 -0.5696,0 -0.5696,1.169617 0,1.16961 0,1.16961 0.29555,1.194756 0.34863,0.02968 0.52126,0.232182 0.38389,0.450384 -0.12762,0.202728 -1.89523,0.255004 -2.05639,0.0608 -0.0806,-0.09708 -0.0837,-0.172742 -0.0137,-0.326463 0.0718,-0.157668 0.15167,-0.200105 0.37641,-0.200105 0.28524,0 0.28524,0 0.28524,-2.673008 0,-2.673006 0,-2.673006 -0.27358,-2.673006 -0.35835,0 -0.51157,-0.176851 -0.38807,-0.447904 0.0912,-0.200098 0.0912,-0.200098 1.37421,-0.200098 1.45635,0 1.90542,0.09234 2.38739,0.490957 0.80811,0.66836 0.88571,1.742681 0.17915,2.48009 -0.3494,0.364649 -0.3494,0.364649 -0.093,0.728368 0.24298,0.34467 0.25853,0.411954 0.29691,1.284886 0.0241,0.548548 0.0793,0.959817 0.1363,1.016699 0.15619,0.155738 0.3497,0.02205 0.3497,-0.241655 0,-0.392093 0.33647,-0.612132 0.64114,-0.419286 0.24381,0.154328 0.063,0.917442 -0.29392,1.240439 -0.17125,0.154982 -0.54138,0.233599 -0.79272,0.168384 z m -1.40369,-3.846585 c 0.18258,-0.05474 0.4346,-0.225874 0.59665,-0.40523 0.23466,-0.259751 0.28054,-0.371657 0.28054,-0.68433 0,-0.324344 -0.0404,-0.414231 -0.30558,-0.679377 -0.35434,-0.354332 -0.74455,-0.484272 -1.45618,-0.484909 -0.50625,-3.08e-4 -0.50625,-3.08e-4 -0.50625,1.174052 0,1.1745 0,1.1745 0.53735,1.1745 0.29555,0 0.67961,-0.0426 0.85347,-0.09471 z" /><path
         id="path318"
         style="fill:#83c167;stroke-width:0.999999;fill-opacity:1"
         d="m 147.28788,53.372465 c -0.29341,-0.29341 -0.40539,-0.706105 -0.40595,-1.496143 -7.7e-4,-1.056004 -0.30115,-1.35273 -1.36945,-1.35273 -0.57501,0 -0.57501,0 -0.57501,1.169618 0,1.16961 0,1.16961 0.30375,1.194748 0.28836,0.02386 0.30375,0.03953 0.30375,0.30864 0,0.283504 0,0.283504 -0.8505,0.30712 -1.12671,0.03126 -1.23182,0.0023 -1.19968,-0.330146 0.0229,-0.237166 0.0524,-0.262722 0.32892,-0.285614 0.30376,-0.02513 0.30376,-0.02513 0.30376,-2.693261 0,-2.668116 0,-2.668116 -0.22275,-2.669353 -0.32631,-0.0016 -0.44183,-0.106266 -0.41149,-0.372052 0.0267,-0.234212 0.0267,-0.234212 1.52524,-0.234212 1.37842,0 1.52455,0.01393 1.82357,0.17411 1.21111,0.64868 1.44138,1.9725 0.4979,2.862418 -0.29444,0.277723 -0.29444,0.277723 -0.10285,0.483603 0.31624,0.339826 0.37336,0.528285 0.37384,1.233311 5.8e-4,0.824719 0.11595,1.301739 0.30605,1.265127 0.0738,-0.01417 0.1717,-0.153123 0.21758,-0.308696 0.11739,-0.398047 0.18862,-0.485357 0.396,-0.485357 0.37122,0 0.47561,0.33362 0.26334,0.841634 -0.1862,0.445661 -0.43019,0.616369 -0.88093,0.616369 -0.32663,0 -0.43608,-0.04008 -0.62509,-0.229134 z m -1.03263,-3.582557 c 0.40329,-0.112 0.83373,-0.550194 0.90296,-0.919244 0.0742,-0.395204 -0.13497,-0.81557 -0.53856,-1.082654 -0.26153,-0.173071 -0.43781,-0.216431 -0.99984,-0.245931 l -0.68234,-0.03583 v 1.184659 c 0,1.18466 0,1.18466 0.50625,1.18421 0.27844,-2.44e-4 0.64363,-0.03859 0.81153,-0.08523 z" /></g><g
       id="g375"
       style="fill:#fc6255;fill-opacity:1"><path
         style="fill:#fc6255;stroke-width:0.999999;fill-opacity:1"
         d="m 166.70629,21.519011 c -0.19031,-0.11085 -0.18116,-0.452724 0.0149,-0.557667 0.0862,-0.04615 0.26842,-0.08386 0.405,-0.08386 0.24833,0 0.24833,0 0.24833,-2.632505 0,-2.632509 0,-2.632509 -0.24833,-2.632509 -0.35384,0 -0.56167,-0.13487 -0.56167,-0.364501 0,-0.302635 0.22594,-0.3645 1.33118,-0.3645 0.90593,0 1.03543,0.01761 1.17799,0.160163 0.30111,0.301113 0.0186,0.568838 -0.60034,0.568838 -0.36983,0 -0.36983,0 -0.36983,2.632509 v 2.632505 h 1.33281 c 1.3328,0 1.3328,0 1.35675,-0.546744 0.0239,-0.546753 0.0239,-0.546753 0.34795,-0.546753 0.32401,0 0.32401,0 0.34742,0.808774 0.02,0.69048 0.003,0.823766 -0.11673,0.911251 -0.17754,0.129822 -4.44477,0.143523 -4.66545,0.01496 z"
         id="path348" /><path
         style="fill:#fc6255;stroke-width:0.999999;fill-opacity:1"
         d="m 189.99387,64.129114 c -0.12079,-0.04859 -0.18225,-0.141469 -0.18225,-0.275519 0,-0.235387 0.20432,-0.369965 0.56167,-0.369965 0.24834,0 0.24834,0 0.24834,-2.632504 0,-2.632505 0,-2.632505 -0.24834,-2.632505 -0.35384,0 -0.56167,-0.134876 -0.56167,-0.364506 0,-0.301065 0.22554,-0.3645 1.296,-0.3645 1.07047,0 1.29601,0.06347 1.29601,0.3645 0,0.2509 -0.21292,0.364506 -0.68318,0.364506 -0.36983,0 -0.36983,0 -0.36983,2.632505 v 2.632504 h 1.33281 c 1.3328,0 1.3328,0 1.35675,-0.546752 0.0239,-0.546745 0.0239,-0.546745 0.34796,-0.546745 0.32399,0 0.32399,0 0.34709,0.831171 0.0231,0.829468 0.0227,0.831343 -0.18753,0.911251 -0.26393,0.100348 -4.3032,0.09729 -4.55383,-0.0032 z"
         id="path338" /><path
         style="fill:#fc6255;stroke-width:0.999999;fill-opacity:1"
         d="m 144.50665,36.538726 c -0.11291,-0.112912 -0.0499,-0.430302 0.10149,-0.511329 0.0862,-0.04615 0.26843,-0.08386 0.405,-0.08386 0.24833,0 0.24833,0 0.24833,-2.668572 0,-2.668573 0,-2.668573 -0.38475,-2.693254 -0.33811,-0.02174 -0.38814,-0.04868 -0.41269,-0.222653 -0.0484,-0.343038 0.15997,-0.409544 1.28344,-0.409544 1.12347,0 1.33187,0.06647 1.28345,0.409544 -0.0253,0.179356 -0.0736,0.201768 -0.51395,0.238459 -0.486,0.04048 -0.486,0.04048 -0.50735,2.69326 l -0.0214,2.65276 h 1.33391 c 1.33391,0 1.33391,0 1.35786,-0.537775 0.0262,-0.588568 0.15333,-0.728612 0.53305,-0.587247 0.17852,0.06647 0.18428,0.0985 0.162,0.900716 l -0.0231,0.831807 -2.39507,0.02142 c -1.31729,0.01182 -2.41991,-0.0032 -2.45026,-0.03379 z"
         id="path308" /><path
         style="fill:#fc6255;stroke-width:0.999999;fill-opacity:1"
         d="m 126.22926,74.829002 c -0.10845,-0.202627 -0.10715,-0.213456 0.0434,-0.364043 0.0727,-0.07269 0.26431,-0.127285 0.4466,-0.127285 0.31933,0 0.31933,0 0.29797,-2.65276 -0.0213,-2.652759 -0.0213,-2.652759 -0.34536,-2.677141 -0.28896,-0.02174 -0.5265,-0.179578 -0.5265,-0.349815 0,-0.03284 0.0573,-0.117017 0.12729,-0.187018 0.1029,-0.102898 0.33276,-0.127293 1.19952,-0.127293 1.1764,0 1.38251,0.06331 1.33364,0.409545 -0.0253,0.17935 -0.0736,0.201772 -0.51394,0.238461 -0.486,0.04048 -0.486,0.04048 -0.50736,2.693261 l -0.0213,2.65276 h 1.29711 c 1.29711,0 1.29711,0 1.29711,-0.445503 0,-0.341205 0.0389,-0.484397 0.16614,-0.611643 0.17125,-0.171244 0.45723,-0.153887 0.58187,0.03528 0.10111,0.153479 0.0717,1.465699 -0.0352,1.572634 -0.0711,0.07112 -0.72297,0.0972 -2.42716,0.0972 -2.22066,0 -2.33389,-0.0071 -2.4138,-0.156674 z"
         id="path306" /><path
         style="fill:#fc6255;stroke-width:0.999999;fill-opacity:1"
         d="m 156.1329,79.101683 c -0.26829,-0.26829 -0.009,-0.552 0.50489,-0.552 0.28993,0 0.28993,0 0.26858,-2.652752 -0.0214,-2.652762 -0.0214,-2.652762 -0.38453,-2.678593 -0.47733,-0.03394 -0.63179,-0.263643 -0.36005,-0.53538 0.10289,-0.102898 0.33277,-0.127294 1.19952,-0.127294 1.21039,0 1.40841,0.06512 1.31611,0.432903 -0.0509,0.202814 -0.0817,0.2151 -0.53845,0.2151 h -0.48446 v 2.67302 2.672996 h 1.29601 c 1.296,0 1.296,0 1.29724,-0.465744 6.4e-4,-0.256165 0.028,-0.504861 0.0608,-0.55266 0.10076,-0.14715 0.34676,-0.200289 0.51367,-0.110965 0.14445,0.07735 0.15682,0.160235 0.13588,0.910967 l -0.023,0.825905 -2.35186,0.02142 c -1.76141,0.01609 -2.37657,-0.0032 -2.45026,-0.07693 z"
         id="path302" /></g><g
       id="g380"><path
         style="fill:#ffffff;stroke-width:0.999999"
         d="m 183.9796,96.702601 c 0,-0.133949 0.0767,-0.157017 0.61156,-0.18404 0.42502,-0.02153 0.63464,-0.06745 0.68726,-0.150602 0.0433,-0.06841 0.0762,-1.373536 0.0769,-3.046498 0.002,-2.926786 0.002,-2.926786 -0.30251,-2.822833 -0.16707,0.05721 -0.486,0.116698 -0.70876,0.132275 -0.36044,0.02525 -0.405,0.01065 -0.405,-0.133681 0,-0.137966 0.0721,-0.170049 0.48601,-0.216283 0.58335,-0.06521 0.8822,-0.172381 1.23885,-0.444412 0.51445,-0.392394 0.50265,-0.467619 0.50265,3.20489 0,2.566071 0.023,3.333638 0.10124,3.384304 0.0557,0.03612 0.35607,0.08375 0.6675,0.106022 0.45549,0.0326 0.5715,0.06819 0.59319,0.182238 0.025,0.131539 -0.10192,0.141758 -1.76099,0.141758 -1.6995,0 -1.78795,-0.0074 -1.78795,-0.153149 z"
         id="path298" /><path
         id="path292"
         style="fill:#ffffff;stroke-width:0.999999"
         d="m 138.41065,96.983859 c -0.70363,-0.306383 -1.23797,-1.126056 -1.41386,-2.16883 -0.14955,-0.88663 -0.0642,-2.8106 0.15458,-3.484134 0.34715,-1.068826 1.09001,-1.685034 2.02935,-1.683383 1.14479,0.0021 1.94318,0.840525 2.19899,2.309512 0.0579,0.332649 0.0785,1.023231 0.0538,1.807294 -0.0324,1.029497 -0.0735,1.363542 -0.21782,1.770384 -0.21227,0.598446 -0.7156,1.202944 -1.1756,1.411885 -0.39129,0.177741 -1.26114,0.197635 -1.62944,0.0373 z m 1.37683,-0.286107 c 0.64013,-0.395622 0.80324,-1.200153 0.76341,-3.765477 -0.0279,-1.798866 -0.0279,-1.798866 -0.27094,-2.270301 -0.27195,-0.527577 -0.6184,-0.772255 -1.0935,-0.772255 -0.4733,0 -0.82168,0.244912 -1.09052,0.766619 -0.24002,0.465787 -0.24002,0.465787 -0.27148,2.218834 -0.0454,2.52784 0.12774,3.420714 0.73911,3.81234 0.33573,0.215047 0.88509,0.219639 1.22392,0.01065 z" /><path
         id="path8745"
         style="fill:#ffffff;stroke-width:0.999999"
         d="m 137.80624,99.862984 c -2.4441,-0.535538 -4.36511,-2.380562 -5.02867,-4.829744 -0.13616,-0.502559 -0.17556,-0.87524 -0.17556,-1.660506 0,-1.183318 0.16542,-1.922328 0.65051,-2.906136 0.16743,-0.339554 0.31656,-0.644712 0.33141,-0.678127 0.0468,-0.105168 -1.21742,-0.06319 -1.79795,0.05988 -0.30578,0.06478 -0.71322,0.209964 -0.90543,0.322602 -0.19221,0.112637 -0.40231,0.204806 -0.46688,0.204806 -0.19112,0 -0.32209,-0.221962 -0.26507,-0.449186 0.0651,-0.259416 0.78818,-0.621399 1.53959,-0.770744 l 0.514,-0.102184 -0.74014,-0.598457 c -1.39307,-1.126418 -3.05249,-2.851655 -4.19889,-4.365448 -4.26528,-5.632154 -6.79352,-13.029744 -7.65146,-22.388093 -0.18201,-1.98536 -0.2083,-8.080602 -0.0433,-10.044029 0.99391,-11.828474 4.3274,-22.008752 9.90642,-30.253605 2.68191,-3.963412 6.0685,-7.483989 9.50824,-9.884407 4.66888,-3.258175 10.00746,-5.0821625 15.45034,-5.2787833 1.3554,-0.048961 1.3554,-0.048961 1.40046,-0.3404123 0.24285,-1.5704856 0.7637,-2.6983058 1.7306,-3.7473469 0.8739,-0.948133 1.81014,-1.5295455 3.03426,-1.88427968 2.36428,-0.68514224 4.78964,-0.04325 6.53284,1.72896538 0.93304,0.9485783 1.40013,1.7709804 1.75753,3.0945096 0.19525,0.7230357 0.19054,2.3418495 -0.009,3.1087096 -0.69776,2.6811136 -2.90394,4.6386626 -5.65676,5.0192506 -0.38475,0.05319 -0.38475,0.05319 -0.38475,4.219744 0,2.291598 0.012,4.166551 0.0268,4.166551 0.0147,0 0.2243,-0.183057 0.46575,-0.406797 0.59024,-0.546949 1.18782,-0.842856 1.47875,-0.732243 0.1545,0.05874 0.21574,0.139688 0.21574,0.285166 0,0.163432 -0.0823,0.244837 -0.42088,0.41642 -0.51671,0.261832 -1.27555,0.971772 -1.6918,1.582752 -0.3112,0.456804 -0.3112,0.456804 0.15149,0.511166 2.41723,0.283992 4.4137,1.717111 5.40226,3.877905 0.42866,0.936963 0.56093,1.579517 0.5615,2.727659 5.8e-4,1.084166 -0.10343,1.627713 -0.48618,2.541704 -0.11419,0.272691 -0.22365,0.550478 -0.24324,0.617306 -0.0254,0.08676 2.58614,1.824071 9.13211,6.075019 5.04225,3.274436 9.19909,5.965995 9.23743,5.981234 0.0383,0.01528 0.0413,-0.130553 0.007,-0.323997 -0.105,-0.58709 -0.0765,-1.646976 0.0483,-1.797311 0.12252,-0.147588 0.45798,-0.180498 0.53698,-0.05269 0.0276,0.04466 0.0606,0.472972 0.0732,0.951754 0.0225,0.850472 0.0685,1.058643 0.47747,2.159519 0.11775,0.316996 0.11775,0.316996 0.22233,0.121496 0.15552,-0.290693 0.95121,-1.105545 1.41886,-1.452995 0.54575,-0.405473 1.40406,-0.83117 2.14494,-1.063823 0.52106,-0.16363 0.7709,-0.189672 1.81902,-0.189672 1.04813,0 1.29796,0.02606 1.81901,0.189672 2.18659,0.686637 3.74641,2.192837 4.4716,4.31794 0.22528,0.660148 0.26291,0.892612 0.29302,1.810408 0.0383,1.169311 -0.10849,2.019019 -0.50319,2.91152 -0.63788,1.442356 -1.97655,2.777131 -3.4298,3.419833 -0.8939,0.395323 -1.72786,0.534893 -2.93414,0.491076 -1.1936,-0.04338 -1.97084,-0.238474 -2.79608,-0.701899 -0.40659,-0.228315 -0.40659,-0.228315 -3.76651,4.472064 -1.84798,2.585215 -3.38954,4.750356 -3.42571,4.811428 -0.0537,0.09063 -0.002,0.09955 0.28351,0.04851 0.54081,-0.0968 1.37515,-0.07394 1.65779,0.04536 0.27685,0.116875 0.37427,0.317903 0.25627,0.528775 -0.0635,0.113535 -0.17241,0.125663 -0.73866,0.08232 -0.71697,-0.05488 -1.28951,0.02882 -2.16692,0.316775 l -0.53077,0.174191 0.51814,0.484696 c 0.9016,0.8434 1.55513,1.910736 1.89853,3.100635 0.24492,0.848668 0.26098,2.623126 0.031,3.426252 -0.50412,1.760495 -1.64879,3.240874 -3.14595,4.068548 -0.34419,0.190283 -0.61492,0.38242 -0.6016,0.426969 0.15013,0.502496 2.69599,7.57134 2.72591,7.568814 0.0223,-0.0011 0.14528,-0.22439 0.27334,-0.49446 0.43512,-0.917648 1.19335,-1.485844 1.41464,-1.060089 0.0975,0.187545 0.0197,0.37493 -0.24012,0.5785 -0.28435,0.222803 -0.83173,1.291522 -1.03241,2.015733 -0.0892,0.32176 -0.14237,0.585032 -0.11823,0.585032 0.0242,0 0.26786,-0.06116 0.54159,-0.135931 0.74995,-0.204827 2.33085,-0.182419 3.17071,0.04486 2.32014,0.628025 4.12437,2.432666 4.74747,4.748529 0.2673,0.993471 0.25024,2.506891 -0.0391,3.467416 -0.36882,1.224489 -0.92721,2.145345 -1.81049,2.985763 -2.83443,2.696884 -7.32307,2.381074 -9.76816,-0.687291 -0.5173,-0.649144 -0.95971,-1.520121 -1.2073,-2.376799 -0.26016,-0.900164 -0.25945,-2.539178 0.001,-3.453842 0.53523,-1.876137 1.86022,-3.448716 3.59869,-4.271159 0.2796,-0.132275 0.46781,-0.240522 0.41824,-0.240555 -0.0495,-3.2e-5 -0.23181,-0.114267 -0.405,-0.253841 -0.4924,-0.396848 -1.60142,-0.899481 -2.08131,-0.943306 -0.4919,-0.04486 -0.62309,-0.127897 -0.62309,-0.394078 0,-0.441556 0.81786,-0.436079 1.83165,0.01225 0.24,0.106127 0.43636,0.165531 0.43636,0.131978 0,-0.0569 -2.67086,-7.57085 -2.70012,-7.59621 -0.007,-0.0064 -0.26854,0.04252 -0.58039,0.108749 -0.39513,0.08386 -0.86165,0.109281 -1.539,0.08386 -0.81556,-0.03069 -1.09391,-0.07768 -1.72941,-0.292181 -0.41647,-0.140606 -1.0179,-0.407362 -1.33641,-0.592776 -0.5493,-0.319766 -1.69736,-1.368997 -2.04411,-1.868129 -0.15499,-0.223118 -0.15499,-0.223118 -12.83153,6.872546 -6.9721,3.902622 -12.76279,7.150463 -12.8682,7.217422 -0.18799,0.119414 -0.18058,0.125477 0.38695,0.316591 1.17268,0.394897 1.74406,1.005618 1.18091,1.26221 -0.17163,0.07821 -0.23157,0.0667 -0.38476,-0.07363 -0.42042,-0.385148 -1.29572,-0.684605 -2.37631,-0.81297 -0.57487,-0.0683 -0.57487,-0.0683 -0.3505,0.426523 0.40611,0.895644 0.51258,1.440643 0.51419,2.631941 0.002,1.299685 -0.15819,1.977279 -0.72527,3.072487 -0.82254,1.588572 -2.35215,2.832156 -4.09121,3.326159 -0.87705,0.249155 -2.2574,0.289165 -3.15908,0.09164 z M 135.81691,87.67912 c 0.35198,-0.20569 0.95348,-0.473331 1.33667,-0.594748 0.69671,-0.220758 0.69671,-0.220758 0.49404,-0.455601 -0.52322,-0.606257 -1.55036,-1.269466 -2.30868,-1.49066 -0.1821,-0.05317 -0.24941,-0.126159 -0.26857,-0.291466 -0.0625,-0.539064 0.76993,-0.454546 1.72586,0.175269 0.26691,0.175835 0.49168,0.31332 0.4995,0.30551 0.008,-0.0074 -1.13759,-6.470462 -2.54533,-14.361443 l -2.55953,-14.347242 -1.05848,-0.04024 c -0.8972,-0.0341 -1.16581,-0.07702 -1.76297,-0.28181 -1.74567,-0.598571 -3.26967,-1.982068 -3.99833,-3.629713 -0.86816,-1.963058 -0.64876,-4.536327 0.53713,-6.299861 0.88825,-1.32093 2.14378,-2.245247 3.72369,-2.741369 0.52105,-0.16363 0.77089,-0.189673 1.81902,-0.189673 1.04812,0 1.29796,0.02606 1.81901,0.189673 1.43371,0.450211 2.58182,1.245383 3.52836,2.443707 0.0884,0.111864 0.15309,0.189364 0.14386,0.172227 -0.009,-0.01716 0.0539,-0.169779 0.14037,-0.339204 0.30343,-0.594774 0.49627,-1.4933 0.47389,-2.208092 -0.0115,-0.368043 0.006,-0.713421 0.0398,-0.76749 0.0879,-0.142171 0.41778,-0.120727 0.54754,0.0356 0.1248,0.150337 0.15327,1.210222 0.0483,1.797312 -0.0346,0.193443 -0.032,0.339243 0.006,0.323998 0.0378,-0.01528 4.19468,-2.7068 9.23746,-5.981235 6.54759,-4.251562 9.15849,-5.988251 9.13303,-6.075019 -0.0196,-0.06686 -0.12908,-0.344614 -0.24327,-0.617306 -0.38275,-0.913992 -0.48672,-1.457539 -0.48618,-2.541705 5.8e-4,-1.146779 0.13286,-1.790727 0.55952,-2.723382 0.99011,-2.16433 2.99768,-3.608428 5.40308,-3.886584 0.46154,-0.05339 0.46154,-0.05339 0.15149,-0.508464 -0.4152,-0.609438 -1.17446,-1.319481 -1.69064,-1.581052 -0.33861,-0.171582 -0.42089,-0.252988 -0.42089,-0.41642 0,-0.145477 0.0612,-0.226425 0.21574,-0.285164 0.29094,-0.110615 0.88852,0.185292 1.47876,0.732242 0.24144,0.223739 0.45103,0.406796 0.46575,0.406796 0.0147,0 0.0268,-1.874951 0.0268,-4.166551 0,-4.16655 0,-4.16655 -0.38475,-4.218597 -1.46617,-0.198338 -2.74097,-0.81741 -3.81422,-1.852282 -1.10558,-1.066089 -1.73021,-2.3274314 -1.99621,-4.0311075 -0.0462,-0.2959838 -0.0462,-0.2959838 -0.87425,-0.2598068 -5.64946,0.2468265 -10.22786,1.7007703 -14.76285,4.6881703 -7.28928,4.801778 -13.07469,13.105672 -16.59056,23.812715 -1.6021,4.878957 -2.57209,9.688092 -3.09595,15.34955 -0.17586,1.900514 -0.24617,7.205474 -0.12267,9.25556 0.65394,10.855601 4.00439,19.901466 9.4844,25.606908 0.77429,0.80614 2.63796,2.478654 2.76195,2.478654 0.0282,0 0.0213,-0.154907 -0.0153,-0.344252 -0.18953,-0.979727 -0.007,-1.923746 0.37116,-1.923746 0.29591,0 0.38389,0.178285 0.30671,0.621568 -0.0918,0.527226 0.006,1.300078 0.27206,2.137726 l 0.2199,0.693812 0.69451,-0.700855 c 0.44741,-0.451509 0.92222,-0.833929 1.33449,-1.074846 z m 27.85613,-75.434316 c 0.32065,-0.07022 0.92927,-0.296185 1.3525,-0.50216 0.64184,-0.312374 0.88439,-0.489397 1.46209,-1.067094 0.57521,-0.575212 0.75648,-0.8230104 1.06954,-1.462096 0.48803,-0.9962854 0.6656,-1.8517042 0.60471,-2.9129957 -0.0845,-1.4732192 -0.62762,-2.678212 -1.68042,-3.7284369 -0.71454,-0.7128024 -1.26913,-1.0595194 -2.24477,-1.4033905 -0.65907,-0.23229272 -0.78761,-0.25007861 -1.80316,-0.24950855 -0.9682,5.5195e-4 -1.16776,0.0254023 -1.74151,0.21688825 -0.91854,0.3065647 -1.60657,0.7346629 -2.30792,1.4360108 -1.06747,1.067477 -1.59821,2.2598367 -1.6796,3.7733705 -0.0572,1.0630251 0.10827,1.844353 0.60726,2.8680621 0.31312,0.6424165 0.48945,0.883589 1.06766,1.460304 0.47622,0.47499 0.86973,0.782799 1.2596,0.985284 0.53952,0.280213 1.38471,0.58527 1.8225,0.657808 0.50008,0.08286 1.6796,0.04443 2.21152,-0.07205 z m -23.23109,86.757825 c 0.31186,-0.065 0.91319,-0.289196 1.3363,-0.498062 0.63624,-0.314077 0.88958,-0.500044 1.46478,-1.07524 0.5752,-0.575207 0.76117,-0.828549 1.07525,-1.464789 0.44167,-0.894719 0.61638,-1.62934 0.61638,-2.591804 0,-0.95736 -0.17589,-1.691278 -0.62094,-2.590951 -0.66335,-1.340995 -1.90078,-2.398868 -3.38576,-2.894479 -0.57472,-0.191817 -0.77168,-0.216228 -1.74151,-0.215866 -0.98093,0 -1.16021,0.02334 -1.7415,0.223037 -2.55481,0.877648 -4.15523,3.226979 -3.98313,5.846998 0.2311,3.518093 3.50555,5.986166 6.98013,5.261156 z m 46.47817,-0.0095 c 1.98042,-0.443816 3.59939,-1.922616 4.24467,-3.877156 0.18424,-0.558063 0.21515,-0.792523 0.21914,-1.662211 0.003,-0.725031 -0.0356,-1.159397 -0.13701,-1.529893 -0.4382,-1.600527 -1.5554,-2.971314 -3.00468,-3.686714 -0.91374,-0.451029 -1.48169,-0.573033 -2.64264,-0.567716 -0.87066,0.0042 -1.10328,0.03473 -1.6605,0.219404 -0.92867,0.30778 -1.60656,0.73281 -2.36025,1.479877 -0.54634,0.541526 -0.72348,0.785458 -1.03412,1.424033 -0.44018,0.904829 -0.61233,1.63018 -0.61233,2.580007 0,0.962464 0.17471,1.697085 0.61638,2.591804 0.31408,0.63624 0.50005,0.889582 1.07525,1.464789 1.13256,1.132566 2.41485,1.673665 4.00009,1.687996 0.39215,0.0042 0.97535,-0.05232 1.296,-0.12422 z M 179.26073,77.29407 c 1.89846,-0.44762 3.45576,-1.873113 4.11781,-3.769303 0.28588,-0.818751 0.35942,-2.211006 0.16335,-3.092262 -0.36579,-1.644198 -1.56124,-3.160116 -3.07357,-3.897525 -0.87104,-0.424712 -1.49539,-0.565661 -2.52324,-0.569621 -1.0659,-0.0039 -1.65882,0.133301 -2.63023,0.609533 -0.5561,0.272619 -0.82585,0.476066 -1.4225,1.072841 -1.07062,1.070848 -1.59769,2.194313 -1.70903,3.64289 -0.2076,2.700758 1.63679,5.268794 4.28185,5.961837 0.72961,0.191167 2.07622,0.211211 2.79556,0.04155 z M 132.19432,55.701038 c 1.6666,-0.23034 3.13131,-1.137307 4.02427,-2.491903 0.68905,-1.045254 0.96509,-1.963246 0.96585,-3.212049 6.4e-4,-1.001232 -0.15153,-1.630917 -0.62626,-2.592003 -0.96147,-1.946535 -2.90142,-3.138763 -5.10725,-3.138763 -2.49785,0 -4.64246,1.550685 -5.46962,3.954844 -1.13163,3.289163 1.15155,6.976301 4.62774,7.473392 0.73056,0.104477 0.87208,0.105041 1.58527,0.0063 z m 61.9652,0 c 1.66661,-0.23034 3.13132,-1.137307 4.02428,-2.491903 0.68905,-1.045254 0.96509,-1.963246 0.96584,-3.212049 7.9e-4,-1.001232 -0.15152,-1.630917 -0.62625,-2.592003 -1.796,-3.636052 -6.75713,-4.240324 -9.47906,-1.154561 -0.44495,0.504432 -1.04141,1.672554 -1.23062,2.410065 -0.18198,0.709357 -0.17725,1.979274 0.0101,2.704775 0.59228,2.293961 2.46731,4.002702 4.7505,4.329194 0.73056,0.104477 0.87207,0.105041 1.58525,0.0063 z M 141.779,87.074962 c -0.0365,-0.122514 -0.12493,-0.474364 -0.19649,-0.781899 -0.17097,-0.734813 -0.49104,-1.435784 -0.78353,-1.716019 -0.24717,-0.236805 -0.30217,-0.501292 -0.13833,-0.665139 0.16215,-0.162142 0.36303,-0.110505 0.63738,0.163847 0.2594,0.259383 0.80443,1.28562 0.80443,1.514624 0,0.238712 0.15875,-0.05935 1.01042,-1.897171 3.79019,-8.178858 8.19406,-15.458376 12.5334,-20.717502 l 0.71985,-0.872427 -0.51006,-0.231151 c -0.28054,-0.127128 -4.392,-2.044801 -9.1366,-4.261493 -4.74459,-2.216683 -8.81213,-4.113669 -9.03899,-4.21551 -0.41246,-0.185167 -0.41246,-0.185167 -0.74446,0.319815 -0.71457,1.08685 -2.13069,2.171284 -3.34551,2.561897 -0.32142,0.103356 -0.55462,0.221826 -0.53648,0.272549 0.0176,0.04938 1.17685,6.51749 2.576,14.373647 2.54392,14.283903 2.54392,14.283903 2.70592,14.055688 0.31624,-0.445511 1.02566,-1.149817 1.25304,-1.243989 0.17164,-0.07108 0.27415,-0.07235 0.40011,-0.0042 0.28591,0.153021 0.21129,0.429207 -0.19294,0.71412 -0.43042,0.30339 -1.00236,1.055571 -1.33904,1.761018 -0.13347,0.27966 -0.24267,0.530135 -0.24267,0.556603 0,0.02643 0.26426,0.02643 0.58725,1e-5 0.71965,-0.05903 1.61531,0.06074 2.41484,0.322783 0.33133,0.108599 0.60836,0.201034 0.61563,0.205434 0.007,0.0042 -0.0167,-0.09227 -0.0532,-0.214768 z m 30.36995,-18.641279 c 0.48339,-0.947509 1.72575,-2.13012 2.79912,-2.664493 1.94537,-0.968487 4.41611,-0.913788 6.21531,0.137602 l 0.51649,0.301813 -0.0202,-0.796606 c -0.0222,-0.873026 -0.18728,-1.650605 -0.43586,-2.052803 -0.0881,-0.142546 -0.16018,-0.33807 -0.16018,-0.434485 0,-0.205375 0.29619,-0.348694 0.50007,-0.241962 0.19544,0.102312 0.54025,0.850834 0.65812,1.428653 0.0557,0.273211 0.11865,0.513906 0.13982,0.534885 0.0343,0.03402 6.71964,-9.262852 6.79019,-9.442664 0.0157,-0.04017 -0.20666,-0.316863 -0.4943,-0.614802 -1.21381,-1.257283 -1.84103,-2.769247 -1.84231,-4.440966 -6.1e-4,-0.740244 -6.1e-4,-0.740244 -0.26903,-0.790605 -1.42979,-0.268226 -4.98901,-0.378902 -6.70923,-0.208635 -5.98925,0.592845 -11.55595,3.106743 -16.99839,7.676404 -0.96421,0.809576 -5.02202,4.799851 -5.02202,4.93843 0,0.07843 12.72808,6.02917 12.7815,5.975745 0.0203,-0.02024 -0.0197,-0.178158 -0.0888,-0.350891 -0.44006,-1.099829 -0.28356,-2.174529 0.27326,-1.876518 0.12129,0.06489 0.15613,0.171385 0.15613,0.477175 0,0.486154 0.2597,1.348541 0.59655,1.980982 0.13968,0.262241 0.28993,0.544729 0.33391,0.627756 0.044,0.08303 0.0888,0.150958 0.0996,0.150958 0.0108,0 0.092,-0.141736 0.18033,-0.314973 z m -13.9195,-8.39867 c 2.40399,-2.587136 5.21873,-5.006059 7.82378,-6.72358 4.5481,-2.998602 9.11331,-4.636183 14.10854,-5.060863 1.40635,-0.119568 4.33248,-0.0563 5.68084,0.122803 0.51233,0.06805 0.96989,0.124073 1.0168,0.124476 0.0469,3.07e-4 0.16774,-0.255178 0.26847,-0.567954 0.10074,-0.312783 0.28343,-0.759293 0.40598,-0.992254 0.22283,-0.423563 0.22283,-0.423563 -0.59247,-0.369989 -0.87758,0.05765 -1.66663,0.26614 -2.05561,0.543123 -0.28572,0.203453 -0.44408,0.217715 -0.58131,0.05237 -0.29615,-0.356844 0.3476,-0.883003 1.3941,-1.139465 0.30619,-0.07504 0.54587,-0.147043 0.53262,-0.160012 -0.0132,-0.013 -4.17401,-2.721518 -9.24614,-6.01898 L 167.763,33.8493 l -0.49415,0.528245 c -0.86084,0.920245 -1.77821,1.483559 -3.02841,1.859596 -0.60702,0.182583 -0.87045,0.215344 -1.76641,0.219714 -1.11523,0.0055 -1.63014,-0.08801 -2.56429,-0.465331 -0.80894,-0.326746 -1.37036,-0.707524 -2.11042,-1.431372 l -0.71045,-0.69489 -9.21446,5.988321 c -5.06795,3.293581 -9.2253,5.998528 -9.23855,6.011002 -0.0132,0.01244 0.22643,0.08406 0.53262,0.159092 1.04651,0.256462 1.69025,0.782621 1.3941,1.139465 -0.13723,0.165354 -0.29558,0.151091 -0.5813,-0.05237 -0.39057,-0.27811 -1.17925,-0.485554 -2.06669,-0.543602 -0.82637,-0.05403 -0.82637,-0.05403 -0.62871,0.283227 0.10871,0.185506 0.31311,0.677794 0.45422,1.093978 0.22571,0.665746 0.26063,0.888154 0.29048,1.850207 0.03,0.966536 0.0108,1.182857 -0.16503,1.863014 -0.10943,0.423224 -0.17593,0.779178 -0.14778,0.791006 0.0282,0.01182 4.33406,2.023484 9.56871,4.470349 5.23464,2.446865 9.55755,4.451062 9.60646,4.453764 0.0489,0.0032 0.65034,-0.599272 1.33651,-1.337705 z m -12.74778,28.680211 c 0.15802,-0.463401 0.22326,-0.822422 0.22901,-1.260217 0.004,-0.336731 0.0349,-0.655666 0.0677,-0.708761 0.087,-0.140703 0.41742,-0.11804 0.54643,0.03751 0.14881,0.179382 0.13144,1.066406 -0.0328,1.674603 -0.11447,0.423943 -0.11472,0.467204 -0.002,0.424124 0.1535,-0.05892 25.47809,-14.22389 25.55328,-14.292908 0.0296,-0.02717 -0.0506,-0.359191 -0.17814,-0.73788 -0.47153,-1.399919 -0.48361,-2.791158 -0.0364,-4.199312 0.10711,-0.337284 0.18711,-0.619432 0.17777,-0.627 -0.009,-0.0078 -0.33501,0.05135 -0.72371,0.130986 -0.79272,0.162369 -1.74228,0.566291 -2.01586,0.857504 -0.22573,0.240278 -0.52173,0.249791 -0.64433,0.02071 -0.0749,-0.139879 -0.0626,-0.211942 0.0653,-0.384747 0.22099,-0.298521 0.7342,-0.629119 1.31637,-0.847978 0.49639,-0.186609 0.49639,-0.186609 -5.99627,-3.218145 -3.57096,-1.667348 -6.52315,-3.042876 -6.56043,-3.056736 -0.0858,-0.0319 -1.39748,1.544102 -2.51552,3.022456 -3.46124,4.576712 -6.57606,9.76283 -9.67024,16.100769 -0.89627,1.835872 -2.06787,4.321346 -2.06787,4.386876 0,0.0096 0.26357,-0.07129 0.58571,-0.17933 0.97334,-0.326436 1.7633,-0.261929 1.7633,0.143997 0,0.222803 -0.16066,0.298104 -0.74708,0.350166 -0.60188,0.05338 -1.52222,0.399127 -2.12437,0.797979 -0.37376,0.247575 -0.37376,0.247575 0.1276,0.541972 0.63039,0.370166 1.67385,1.342519 2.02063,1.882925 0.26416,0.411648 0.26416,0.411648 0.4528,0.100056 0.10375,-0.17137 0.28808,-0.603187 0.40961,-0.959598 z m 18.69336,-53.36863 c 0.9083,-0.29282 1.60072,-0.721454 2.30792,-1.428646 0.70169,-0.701686 1.12983,-1.389987 1.43559,-2.307916 0.19113,-0.57382 0.21584,-0.773194 0.21584,-1.741508 0,-0.968322 -0.0247,-1.167689 -0.21584,-1.741507 -0.94736,-2.844094 -3.76747,-4.482808 -6.67947,-3.881316 -1.99783,0.412664 -3.62567,1.885229 -4.29055,3.881316 -0.19114,0.573818 -0.21585,0.773185 -0.21585,1.741507 0,0.968314 0.0247,1.167688 0.21585,1.741508 0.66424,1.994125 2.23659,3.414833 4.3105,3.894757 0.75407,0.174497 2.11268,0.10079 2.91601,-0.158195 z" /></g></g></svg>
